<svg width="240" height="80" viewBox="0 0 240 80" xmlns="http://www.w3.org/2000/svg">
  <defs>
    <!-- White/light gradient for dark backgrounds -->
    <linearGradient id="whiteGradient" x1="0%" y1="0%" x2="100%" y2="0%">
      <stop offset="0%" stop-color="#FFFFFF"/>
      <stop offset="100%" stop-color="#E2E8F0"/>
    </linearGradient>
    <!-- Golden gradient for fish -->
    <linearGradient id="golden" x1="0%" y1="0%" x2="100%" y2="0%">
      <stop offset="0%" stop-color="#FBBF24"/>
      <stop offset="100%" stop-color="#F59E0B"/>
    </linearGradient>
  </defs>

  <!-- Wave decoration at bottom -->
  <path d="M0 65 Q30 55 60 65 Q90 75 120 65 Q150 55 180 65 Q210 75 240 65 L240 80 L0 80 Z" 
        fill="#0E7490" opacity="0.3"/>
  <path d="M0 72 Q30 62 60 72 Q90 82 120 72 Q150 62 180 72 Q210 82 240 72 L240 80 L0 80 Z" 
        fill="#0E7490" opacity="0.5"/>

  <!-- Outer circle - represents a plate or sunset -->
  <circle cx="35" cy="38" r="26" 
          fill="none"
          stroke="url(#whiteGradient)" 
          stroke-width="2.5"/>

  <!-- Inner circle -->
  <circle cx="35" cy="38" r="20" 
          fill="none"
          stroke="url(#whiteGradient)" 
          stroke-width="1"
          opacity="0.5"/>

  <!-- Simplified fish icon -->
  <g transform="translate(35, 38)">
    <!-- Fish body - flowing shape -->
    <ellipse cx="0" cy="0" rx="10" ry="6" 
             fill="url(#golden)"/>
    
    <!-- Tail -->
    <path d="M-10 0 L-16 -5 L-16 5 Z" 
          fill="url(#golden)"/>
    
    <!-- Eye -->
    <circle cx="5" cy="-1" r="1.5" fill="#fff"/>
    <circle cx="5.5" cy="-1" r="0.5" fill="#0D4"/>
  </g>

  <!-- Wave accent -->
  <path d="M20 52 Q27 48 35 52 Q43 56 50 52" 
        fill="none"
        stroke="url(#whiteGradient)"
        stroke-width="1.5"
        stroke-linecap="round"/>

  <!-- Restaurant name - white for dark footer -->
  <text x="68" y="46"
        font-family="'Segoe UI', 'Helvetica Neue', Arial, sans-serif"
        font-size="32"
        font-weight="700"
        fill="url(#whiteGradient)"
        letter-spacing="1">
    Azure Bay
  </text>

  <!-- Tagline -->
  <text x="68" y="62"
        font-family="'Segoe UI', 'Helvetica Neue', Arial, sans-serif"
        font-size="11"
        font-weight="400"
        fill="#94A3B8"
        letter-spacing="2">
    SEAFOOD RESTAURANT
  </text>
</svg>